<svg xmlns="http://www.w3.org/2000/svg" xmlns:xlink="http://www.w3.org/1999/xlink" width="48" zoomAndPan="magnify" viewBox="0 0 36 34.499999" height="46" preserveAspectRatio="xMidYMid meet" version="1.0"><defs><clipPath id="bc3732095f"><path d="M 0.257812 0 L 35.742188 0 L 35.742188 34.007812 L 0.257812 34.007812 Z M 0.257812 0 " clip-rule="nonzero"/></clipPath><clipPath id="5489022084"><path d="M 2.707031 1.882812 L 33.039062 1.882812 L 33.039062 32.214844 L 2.707031 32.214844 Z M 2.707031 1.882812 " clip-rule="nonzero"/></clipPath><clipPath id="e6b7d70eac"><path d="M 17.875 1.882812 C 9.496094 1.882812 2.707031 8.671875 2.707031 17.050781 C 2.707031 25.425781 9.496094 32.214844 17.875 32.214844 C 26.25 32.214844 33.039062 25.425781 33.039062 17.050781 C 33.039062 8.671875 26.25 1.882812 17.875 1.882812 Z M 17.875 1.882812 " clip-rule="nonzero"/></clipPath><clipPath id="28bfa8f6c2"><path d="M 17 0.371094 L 32 0.371094 L 32 18 L 17 18 Z M 17 0.371094 " clip-rule="nonzero"/></clipPath><clipPath id="291501a6ec"><path d="M 17.859375 6.6875 L 35.378906 6.6875 L 35.378906 17.066406 L 17.859375 17.066406 Z M 17.859375 6.6875 " clip-rule="nonzero"/></clipPath><clipPath id="c3c7e336f9"><path d="M 12 0.371094 L 24 0.371094 L 24 18 L 12 18 Z M 12 0.371094 " clip-rule="nonzero"/></clipPath><clipPath id="f000c53e56"><path d="M 17 17 L 33 17 L 33 33.980469 L 17 33.980469 Z M 17 17 " clip-rule="nonzero"/></clipPath><clipPath id="d0d951a316"><path d="M 12.519531 17.046875 L 23.371094 17.046875 L 23.371094 33.722656 L 12.519531 33.722656 Z M 12.519531 17.046875 " clip-rule="nonzero"/></clipPath><clipPath id="542744af4a"><path d="M 17.859375 16.964844 L 35.378906 16.964844 L 35.378906 27.285156 L 17.859375 27.285156 Z M 17.859375 16.964844 " clip-rule="nonzero"/></clipPath><clipPath id="2c36ae8a4d"><path d="M 3.730469 17.046875 L 17.878906 17.046875 L 17.878906 33.722656 L 3.730469 33.722656 Z M 3.730469 17.046875 " clip-rule="nonzero"/></clipPath><clipPath id="1877a3d00c"><path d="M 3 0.371094 L 18 0.371094 L 18 18 L 3 18 Z M 3 0.371094 " clip-rule="nonzero"/></clipPath><clipPath id="9e5649c77b"><path d="M 0.351562 17 L 18 17 L 18 28 L 0.351562 28 Z M 0.351562 17 " clip-rule="nonzero"/></clipPath><clipPath id="c64fb6c410"><path d="M 0.351562 6 L 18 6 L 18 18 L 0.351562 18 Z M 0.351562 6 " clip-rule="nonzero"/></clipPath></defs><g clip-path="url(#bc3732095f)"><path fill="#ffffff" d="M 0.257812 0 L 35.742188 0 L 35.742188 34.007812 L 0.257812 34.007812 Z M 0.257812 0 " fill-opacity="1" fill-rule="nonzero"/></g><g clip-path="url(#5489022084)"><g clip-path="url(#e6b7d70eac)"><path fill="#000000" d="M 2.707031 1.882812 L 33.039062 1.882812 L 33.039062 32.214844 L 2.707031 32.214844 Z M 2.707031 1.882812 " fill-opacity="1" fill-rule="nonzero"/></g></g><g clip-path="url(#28bfa8f6c2)"><path fill="#f57f17" d="M 17.867188 17.046875 L 31.988281 6.691406 C 30.902344 7.488281 22.796875 1.652344 23.207031 0.371094 L 17.867188 17.046875 " fill-opacity="1" fill-rule="nonzero"/></g><g clip-path="url(#291501a6ec)"><path fill="#1b1a1a" d="M 17.867188 17.046875 L 35.378906 16.96875 C 34.03125 16.976562 30.902344 7.488281 31.988281 6.691406 L 17.867188 17.046875 " fill-opacity="1" fill-rule="nonzero"/></g><g clip-path="url(#c3c7e336f9)"><path fill="#1b1a1a" d="M 17.867188 17.046875 L 23.207031 0.371094 C 22.796875 1.652344 12.804688 1.695312 12.382812 0.417969 L 17.867188 17.046875 " fill-opacity="1" fill-rule="nonzero"/></g><g clip-path="url(#f000c53e56)"><path fill="#1b1a1a" d="M 17.867188 17.046875 L 23.351562 33.675781 C 22.929688 32.398438 30.988281 26.488281 32.078125 27.277344 L 17.867188 17.046875 " fill-opacity="1" fill-rule="nonzero"/></g><g clip-path="url(#d0d951a316)"><path fill="#f57f17" d="M 12.53125 33.722656 C 12.941406 32.441406 22.929688 32.398438 23.351562 33.675781 L 17.867188 17.046875 L 12.53125 33.722656 " fill-opacity="1" fill-rule="nonzero"/></g><g clip-path="url(#542744af4a)"><path fill="#f57f17" d="M 35.378906 16.96875 L 17.867188 17.046875 L 32.078125 27.277344 C 30.988281 26.488281 34.03125 16.976562 35.378906 16.96875 " fill-opacity="1" fill-rule="nonzero"/></g><g clip-path="url(#2c36ae8a4d)"><path fill="#1b1a1a" d="M 17.867188 17.046875 L 3.746094 27.402344 C 4.832031 26.605469 12.941406 32.441406 12.53125 33.722656 L 17.867188 17.046875 " fill-opacity="1" fill-rule="nonzero"/></g><g clip-path="url(#1877a3d00c)"><path fill="#f57f17" d="M 12.382812 0.417969 C 12.804688 1.695312 4.75 7.605469 3.65625 6.816406 L 17.867188 17.046875 L 12.382812 0.417969 " fill-opacity="1" fill-rule="nonzero"/></g><g clip-path="url(#9e5649c77b)"><path fill="#f57f17" d="M 17.867188 17.046875 L 0.359375 17.125 C 1.703125 17.117188 4.832031 26.605469 3.746094 27.402344 L 17.867188 17.046875 " fill-opacity="1" fill-rule="nonzero"/></g><g clip-path="url(#c64fb6c410)"><path fill="#1b1a1a" d="M 17.867188 17.046875 L 3.65625 6.816406 C 4.75 7.605469 1.703125 17.117188 0.359375 17.125 L 17.867188 17.046875 " fill-opacity="1" fill-rule="nonzero"/></g></svg>